<svg width="22" height="22" viewBox="0 0 22 22" fill="none" xmlns="http://www.w3.org/2000/svg">
<path d="M14 3.0625C14.5531 3.0625 15 3.5373 15 4.125V12.625H7V4.125C7 3.5373 7.44687 3.0625 8 3.0625H14ZM15 13.6875V16.875C15 17.4627 14.5531 17.9375 14 17.9375H8C7.44687 17.9375 7 17.4627 7 16.875V13.6875H15ZM8 2C6.89688 2 6 2.95293 6 4.125V16.875C6 18.0471 6.89688 19 8 19H14C15.1031 19 16 18.0471 16 16.875V4.125C16 2.95293 15.1031 2 14 2H8ZM11.75 15.8125C11.75 15.6012 11.671 15.3985 11.5303 15.249C11.3897 15.0996 11.1989 15.0156 11 15.0156C10.8011 15.0156 10.6103 15.0996 10.4697 15.249C10.329 15.3985 10.25 15.6012 10.25 15.8125C10.25 16.0238 10.329 16.2265 10.4697 16.376C10.6103 16.5254 10.8011 16.6094 11 16.6094C11.1989 16.6094 11.3897 16.5254 11.5303 16.376C11.671 16.2265 11.75 16.0238 11.75 15.8125Z" fill="black"/>
</svg>
