<svg width="26" height="26" viewBox="0 0 26 26" fill="none" xmlns="http://www.w3.org/2000/svg">
<path d="M7.58337 13L13 18.4166L23.8334 7.58331" stroke="#2F2B3D" stroke-opacity="0.9" stroke-width="1.5" stroke-linecap="round" stroke-linejoin="round"/>
<path d="M2.69696 12.4696C2.40406 12.1768 1.92919 12.1768 1.6363 12.4696C1.3434 12.7625 1.3434 13.2374 1.6363 13.5303L2.69696 12.4696ZM7.05296 18.947C7.34586 19.2399 7.82073 19.2399 8.11362 18.947C8.40652 18.6541 8.40652 18.1792 8.11362 17.8863L7.05296 18.947ZM12.4696 12.4696C12.1767 12.7625 12.1767 13.2374 12.4696 13.5303C12.7625 13.8232 13.2374 13.8232 13.5303 13.5303L12.4696 12.4696ZM18.947 8.11364C19.2398 7.82075 19.2398 7.34588 18.947 7.05298C18.6541 6.76009 18.1792 6.76009 17.8863 7.05298L18.947 8.11364ZM1.6363 13.5303L7.05296 18.947L8.11362 17.8863L2.69696 12.4696L1.6363 13.5303ZM13.5303 13.5303L18.947 8.11364L17.8863 7.05298L12.4696 12.4696L13.5303 13.5303Z" fill="#2F2B3D" fill-opacity="0.9"/>
</svg>
