<svg width="22" height="22" viewBox="0 0 22 22" fill="none" xmlns="http://www.w3.org/2000/svg">
<path d="M13.7143 6.25C13.7143 5.83141 13.6311 5.41692 13.4696 5.0302C13.3081 4.64347 13.0713 4.29208 12.7728 3.9961C12.4744 3.70011 12.12 3.46532 11.7301 3.30513C11.3401 3.14495 10.9221 3.0625 10.5 3.0625C10.0779 3.0625 9.65992 3.14495 9.26995 3.30513C8.87997 3.46532 8.52563 3.70011 8.22716 3.9961C7.92868 4.29208 7.69192 4.64347 7.53039 5.0302C7.36885 5.41692 7.28571 5.83141 7.28571 6.25C7.28571 6.66859 7.36885 7.08308 7.53039 7.4698C7.69192 7.85653 7.92868 8.20792 8.22716 8.5039C8.52563 8.79989 8.87997 9.03468 9.26995 9.19487C9.65992 9.35505 10.0779 9.4375 10.5 9.4375C10.9221 9.4375 11.3401 9.35505 11.7301 9.19487C12.12 9.03468 12.4744 8.79989 12.7728 8.5039C13.0713 8.20792 13.3081 7.85653 13.4696 7.4698C13.6311 7.08308 13.7143 6.66859 13.7143 6.25ZM6.21429 6.25C6.21429 5.12283 6.66581 4.04183 7.46954 3.2448C8.27327 2.44777 9.36336 2 10.5 2C11.6366 2 12.7267 2.44777 13.5305 3.2448C14.3342 4.04183 14.7857 5.12283 14.7857 6.25C14.7857 7.37717 14.3342 8.45817 13.5305 9.2552C12.7267 10.0522 11.6366 10.5 10.5 10.5C9.36336 10.5 8.27327 10.0522 7.46954 9.2552C6.66581 8.45817 6.21429 7.37717 6.21429 6.25ZM4.07143 17.9375H16.9286C16.8884 15.2912 14.7121 13.1562 12.0301 13.1562H8.96987C6.29129 13.1562 4.11496 15.2912 4.07143 17.9375ZM3 18.0139C3 14.7434 5.67187 12.0938 8.96987 12.0938H12.0301C15.3281 12.0938 18 14.7434 18 18.0139C18 18.5584 17.5547 19 17.0056 19H3.99442C3.44531 19 3 18.5584 3 18.0139Z" fill="black"/>
</svg>
