<svg width="22" height="22" viewBox="0 0 22 22" fill="none" xmlns="http://www.w3.org/2000/svg">
<path d="M11.7815 4.5C11.7815 4.225 12.0126 4 12.2949 4H13.6073C14.2715 4 14.8588 4.4125 15.0673 5.025L15.2342 5.50938L17.0536 4.625C17.2204 4.54375 17.4065 4.5 17.5959 4.5C18.0708 4.5 18.4558 4.875 18.4558 5.34063V7.6625C18.4558 8.125 18.0708 8.50313 17.5926 8.50313C17.4033 8.50313 17.2204 8.45938 17.0504 8.37813L16.0492 7.8875L16.8675 10.2812C17.0504 10.2594 17.2397 10.25 17.429 10.25C18.7606 10.25 19.9671 10.7688 20.8464 11.6094C21.0485 11.8031 21.0517 12.1188 20.8528 12.3156C20.6538 12.5125 20.3297 12.5156 20.1276 12.3219C19.4313 11.6594 18.4783 11.25 17.429 11.25C15.616 11.25 14.0919 12.4719 13.6843 14.1187C13.649 14.2625 13.6202 14.4094 13.6041 14.5594C13.5752 14.8125 13.3538 15 13.0939 15H11.7815H10.2413H9.2145C9.2145 16.6562 7.83472 18 6.13406 18C4.4334 18 3.05362 16.6562 3.05362 15H2.02681C1.45886 15 1 14.5531 1 14V13C1 10.7906 2.83864 9 5.10725 9H8.18769C8.75564 9 9.2145 9.44688 9.2145 10V13C9.2145 13.5531 9.67336 14 10.2413 14H11.2681H11.7815H12.2949H12.6607C12.6704 13.9594 12.68 13.9219 12.6896 13.8813C13.0811 12.2938 14.294 11.0188 15.8631 10.5L14.0983 5.34063C14.0277 5.1375 13.8319 5 13.6105 5H12.2949C12.0126 5 11.7815 4.775 11.7815 4.5ZM15.5904 6.54688C15.5968 6.55 15.6 6.55 15.6064 6.55312L17.429 7.44063V5.55938L15.6064 6.44688C15.5936 6.45312 15.5775 6.45938 15.5647 6.46563L15.5936 6.54688H15.5904ZM4.59384 7H8.70109C8.98347 7 9.2145 7.225 9.2145 7.5C9.2145 7.775 8.98347 8 8.70109 8H4.59384C4.31147 8 4.08044 7.775 4.08044 7.5C4.08044 7.225 4.31147 7 4.59384 7ZM8.18769 10H5.10725C3.40659 10 2.02681 11.3438 2.02681 13V14H3.23011H4.35639H7.91494H8.46364C8.29037 13.7063 8.18769 13.3656 8.18769 13V10ZM6.13406 17C7.26676 17 8.18769 16.1031 8.18769 15H4.08044C4.08044 16.1031 5.00136 17 6.13406 17ZM17.429 17C17.9737 17 18.496 16.7893 18.8811 16.4142C19.2663 16.0391 19.4826 15.5304 19.4826 15C19.4826 14.4696 19.2663 13.9609 18.8811 13.5858C18.496 13.2107 17.9737 13 17.429 13C16.8843 13 16.362 13.2107 15.9769 13.5858C15.5917 13.9609 15.3754 14.4696 15.3754 15C15.3754 15.5304 15.5917 16.0391 15.9769 16.4142C16.362 16.7893 16.8843 17 17.429 17ZM17.429 12C18.246 12 19.0295 12.3161 19.6072 12.8787C20.1849 13.4413 20.5094 14.2044 20.5094 15C20.5094 15.7956 20.1849 16.5587 19.6072 17.1213C19.0295 17.6839 18.246 18 17.429 18C16.612 18 15.8285 17.6839 15.2508 17.1213C14.6731 16.5587 14.3486 15.7956 14.3486 15C14.3486 14.2044 14.6731 13.4413 15.2508 12.8787C15.8285 12.3161 16.612 12 17.429 12Z" fill="black"/>
</svg>
