<svg width="22" height="22" viewBox="0 0 22 22" fill="none" xmlns="http://www.w3.org/2000/svg">
<path d="M7.3125 5.67191C7.3125 5.75206 7.35566 5.89902 7.58809 6.09941C7.63457 6.13949 7.68437 6.17957 7.74082 6.21965C7.22949 6.23969 6.73145 6.2831 6.25 6.3499V5.67191C6.25 5.1609 6.53555 4.74676 6.89414 4.43615C7.25605 4.1222 7.74746 3.86503 8.31191 3.6613C9.44082 3.24381 10.9648 3 12.625 3C14.2852 3 15.8092 3.24381 16.9381 3.65796C17.4992 3.86503 17.9939 4.1222 18.3559 4.43281C18.7145 4.74676 19 5.1609 19 5.67191V9.14538V12.9495C19 13.4639 18.7277 13.8914 18.3658 14.2187C18.0039 14.546 17.5125 14.8165 16.948 15.0336C16.6027 15.1639 16.2242 15.2807 15.8158 15.3776V14.2754C16.0881 14.202 16.3404 14.1218 16.5729 14.035C17.0676 13.8446 17.4295 13.6342 17.6586 13.4271C17.8877 13.22 17.9408 13.0564 17.9408 12.9528V10.7418C17.652 10.9289 17.3166 11.0925 16.948 11.2328C16.6027 11.3631 16.2242 11.48 15.8158 11.5768V10.4747C16.0881 10.4012 16.3404 10.321 16.5729 10.2342C17.0676 10.0438 17.4295 9.8334 17.6586 9.62633C17.8877 9.41925 17.9408 9.2556 17.9408 9.15206V7.21827C17.6486 7.39862 17.31 7.5556 16.9414 7.68919C16.367 7.89961 15.693 8.0666 14.9492 8.17682C14.8861 8.11336 14.823 8.0499 14.76 7.99312C14.4246 7.68919 14.0395 7.44538 13.6377 7.24165C14.7932 7.16483 15.8092 6.9611 16.5762 6.68055C17.0709 6.5002 17.4328 6.29646 17.6652 6.09941C17.8977 5.89902 17.9408 5.75206 17.9408 5.67191C17.9408 5.59175 17.8977 5.44479 17.6652 5.2444C17.4361 5.04735 17.0742 4.84361 16.5762 4.66326C15.59 4.30255 14.1922 4.06876 12.625 4.06876C11.0578 4.06876 9.65996 4.30255 8.67383 4.66326C8.1791 4.84361 7.81719 5.04735 7.58477 5.2444C7.35234 5.44479 7.30918 5.59175 7.30918 5.67191H7.3125ZM3.0625 9.94695C3.0625 10.0271 3.10566 10.1741 3.33809 10.3745C3.56719 10.5715 3.9291 10.7752 4.42715 10.9556C5.40996 11.3163 6.80781 11.5501 8.375 11.5501C9.94219 11.5501 11.34 11.3163 12.3262 10.9556C12.8209 10.7752 13.1828 10.5715 13.4152 10.3745C13.6477 10.1741 13.6908 10.0271 13.6908 9.94695C13.6908 9.8668 13.6477 9.71984 13.4152 9.51945C13.1861 9.3224 12.8242 9.11866 12.3262 8.93831C11.34 8.5776 9.94219 8.34381 8.375 8.34381C6.80781 8.34381 5.40996 8.5776 4.42383 8.93831C3.9291 9.11866 3.56719 9.3224 3.33477 9.51945C3.10234 9.71984 3.05918 9.8668 3.05918 9.94695H3.0625ZM2 9.94695C2 9.43595 2.28555 9.02181 2.64414 8.7112C3.00605 8.39725 3.49746 8.14008 4.06191 7.93635C5.19082 7.51886 6.71484 7.27505 8.375 7.27505C10.0352 7.27505 11.5592 7.51886 12.6881 7.93301C13.2492 8.14008 13.7439 8.39725 14.1059 8.70786C14.4678 9.01847 14.75 9.43595 14.75 9.94361V13.4171V17.2212C14.75 17.7356 14.4777 18.1631 14.1158 18.4904C13.7539 18.8177 13.2625 19.0882 12.698 19.3053C11.5658 19.7428 10.0352 20 8.375 20C6.71484 20 5.18418 19.7428 4.05527 19.3086C3.49082 19.0916 2.99941 18.821 2.6375 18.4937C2.27559 18.1664 2 17.7389 2 17.2246V13.4204V9.94695ZM13.6875 11.4866C13.3953 11.667 13.0566 11.824 12.6881 11.9576C11.5592 12.375 10.0352 12.6189 8.375 12.6189C6.71484 12.6189 5.19082 12.375 4.06191 11.9609C3.69336 11.8273 3.35469 11.6703 3.0625 11.49V13.4204C3.0625 13.524 3.11563 13.6876 3.34473 13.8947C3.57383 14.1018 3.93574 14.3155 4.43047 14.5026C5.4166 14.88 6.80781 15.1238 8.375 15.1238C9.94219 15.1238 11.3334 14.88 12.3195 14.5026C12.8143 14.3122 13.1762 14.1018 13.4053 13.8947C13.6344 13.6876 13.6875 13.524 13.6875 13.4204V11.4866ZM3.0625 17.2246C3.0625 17.3281 3.11563 17.4917 3.34473 17.6988C3.57383 17.9059 3.93574 18.1196 4.43047 18.3067C5.4166 18.6841 6.80781 18.9312 8.375 18.9312C9.94219 18.9312 11.3334 18.6874 12.3195 18.31C12.8143 18.1196 13.1762 17.9092 13.4053 17.7022C13.6344 17.4951 13.6875 17.3314 13.6875 17.2279V15.0169C13.3986 15.2039 13.0633 15.3676 12.6947 15.5079C11.5658 15.9387 10.0352 16.1925 8.375 16.1925C6.71484 16.1925 5.18418 15.9354 4.05527 15.5012C3.69004 15.3609 3.35469 15.1973 3.0625 15.0102V17.2212V17.2246Z" fill="black"/>
</svg>
