<svg width="22" height="22" viewBox="0 0 22 22" fill="none" xmlns="http://www.w3.org/2000/svg">
<path d="M3.12478 11C3.12478 6.65117 6.65026 3.125 10.9982 3.125C15.3462 3.125 18.8717 6.65117 18.8717 11V16.066C18.8717 16.9977 18.116 17.7535 17.1845 17.7535L14.2777 17.75C14.0457 17.0961 13.42 16.625 12.6854 16.625H10.4359C9.50439 16.625 8.74868 17.3809 8.74868 18.3125C8.74868 19.2441 9.50439 20 10.4359 20H12.6854C13.42 20 14.0457 19.5289 14.2777 18.875L17.1845 18.8785C18.7381 18.8785 20 17.6199 20 16.066L19.9965 11C19.9965 6.02891 15.9684 2 10.9982 2C6.02812 2 2 6.02891 2 11V12.6875C2 12.9969 2.25308 13.25 2.56239 13.25C2.8717 13.25 3.12478 12.9969 3.12478 12.6875V11ZM13.2478 18.3125C13.2478 18.6219 12.9947 18.875 12.6854 18.875H10.4359C10.1265 18.875 9.87346 18.6219 9.87346 18.3125C9.87346 18.0031 10.1265 17.75 10.4359 17.75H12.6854C12.9947 17.75 13.2478 18.0031 13.2478 18.3125ZM6.31166 9.875H6.87405V14.375H6.31166C5.3802 14.375 4.62449 13.6191 4.62449 12.6875V11.5625C4.62449 10.6309 5.3802 9.875 6.31166 9.875ZM3.49971 11.5625V12.6875C3.49971 14.2414 4.75805 15.5 6.31166 15.5H6.87405C7.49619 15.5 7.99883 14.9973 7.99883 14.375V9.875C7.99883 9.25273 7.49619 8.75 6.87405 8.75H6.31166C4.75805 8.75 3.49971 10.0086 3.49971 11.5625ZM15.1224 9.875H15.6848C16.6163 9.875 17.372 10.6309 17.372 11.5625V12.6875C17.372 13.6191 16.6163 14.375 15.6848 14.375H15.1224V9.875ZM15.6848 8.75H15.1224C14.5003 8.75 13.9977 9.25273 13.9977 9.875V14.375C13.9977 14.9973 14.5003 15.5 15.1224 15.5H15.6848C17.2384 15.5 18.4968 14.2414 18.4968 12.6875V11.5625C18.4968 10.0086 17.2384 8.75 15.6848 8.75Z" fill="black"/>
</svg>
