<svg width="22" height="22" viewBox="0 0 22 22" fill="none" xmlns="http://www.w3.org/2000/svg">
<path d="M9.92045 4.37243C10.0017 4.64863 9.84569 4.93783 9.56944 5.01906C9.10792 5.15554 8.6659 5.344 8.24989 5.57146C8.33439 5.79892 8.37989 6.04262 8.37989 6.29933C8.37989 7.44637 7.44711 8.37895 6.29982 8.37895C6.04307 8.37895 5.79931 8.33345 5.5718 8.24897C5.34429 8.66489 5.15904 9.10681 5.01928 9.56823C4.93803 9.84443 4.64877 10.0004 4.37251 9.91916C4.09625 9.83793 3.94025 9.54873 4.0215 9.27253C4.1905 8.70064 4.42451 8.15799 4.71377 7.64783C4.40826 7.2839 4.223 6.81273 4.223 6.29933C4.223 5.15229 5.15579 4.21971 6.30307 4.21971C6.81659 4.21971 7.28786 4.40492 7.65187 4.71687C8.15889 4.42767 8.70491 4.19371 9.27693 4.02474C9.55318 3.94351 9.84244 4.09948 9.9237 4.37568L9.92045 4.37243ZM13.0828 4.37243C13.1641 4.09623 13.4533 3.94026 13.7296 4.02149C14.3016 4.19046 14.8444 4.42442 15.3546 4.71362C15.7186 4.40492 16.1899 4.21971 16.7034 4.21971C17.8507 4.21971 18.7835 5.15229 18.7835 6.29933C18.7835 6.81273 18.5982 7.2839 18.2862 7.64783C18.5755 8.15474 18.8095 8.70064 18.9785 9.27253C19.0598 9.54873 18.9038 9.83793 18.6275 9.91916C18.3512 10.0004 18.062 9.84443 17.9807 9.56823C17.8442 9.10681 17.6557 8.66489 17.4282 8.24897C17.2007 8.33345 16.9569 8.37895 16.7002 8.37895C15.5529 8.37895 14.6201 7.44637 14.6201 6.29933C14.6201 6.04262 14.6656 5.79892 14.7501 5.57146C14.3341 5.344 13.8921 5.15878 13.4306 5.01906C13.1543 4.93783 12.9983 4.64863 13.0796 4.37243H13.0828ZM4.37251 13.0808C4.64877 12.9996 4.93803 13.1556 5.01928 13.4318C5.15579 13.8932 5.34429 14.3351 5.5718 14.751C5.79931 14.6665 6.04307 14.6211 6.29982 14.6211C7.44711 14.6211 8.37989 15.5536 8.37989 16.7007C8.37989 16.9574 8.33439 17.2011 8.24989 17.4285C8.6659 17.656 9.10792 17.8412 9.56944 17.9809C9.84569 18.0622 10.0017 18.3514 9.92045 18.6276C9.83919 18.9038 9.54993 19.0597 9.27367 18.9785C8.70166 18.8095 8.15889 18.5756 7.64862 18.2864C7.28786 18.5918 6.81659 18.777 6.30307 18.777C5.15579 18.777 4.223 17.8445 4.223 16.6974C4.223 16.184 4.40826 15.7129 4.72027 15.3489C4.43101 14.842 4.197 14.2961 4.028 13.7242C3.94675 13.448 4.10275 13.1588 4.37901 13.0776L4.37251 13.0808ZM18.6275 13.0808C18.9038 13.1621 19.0598 13.4513 18.9785 13.7275C18.8095 14.2994 18.5755 14.842 18.2862 15.3522C18.595 15.7161 18.7835 16.1873 18.7835 16.7007C18.7835 17.8477 17.8507 18.7803 16.7034 18.7803C16.1899 18.7803 15.7186 18.5951 15.3546 18.2831C14.8476 18.5723 14.3016 18.8063 13.7296 18.9753C13.4533 19.0565 13.1641 18.9005 13.0828 18.6243C13.0016 18.3481 13.1576 18.0589 13.4338 17.9777C13.8953 17.8412 14.3373 17.6527 14.7534 17.4253C14.6689 17.1978 14.6234 16.9541 14.6234 16.6974C14.6234 15.5504 15.5561 14.6178 16.7034 14.6178C16.9602 14.6178 17.2039 14.6633 17.4315 14.7478C17.659 14.3319 17.8442 13.8899 17.984 13.4285C18.0652 13.1523 18.3545 12.9964 18.6307 13.0776L18.6275 13.0808ZM6.30307 7.33914C6.57891 7.33914 6.84345 7.22959 7.03849 7.03458C7.23354 6.83958 7.34311 6.5751 7.34311 6.29933C7.34311 6.02355 7.23354 5.75907 7.03849 5.56407C6.84345 5.36907 6.57891 5.25952 6.30307 5.25952C6.02724 5.25952 5.7627 5.36907 5.56766 5.56407C5.37261 5.75907 5.26304 6.02355 5.26304 6.29933C5.26304 6.5751 5.37261 6.83958 5.56766 7.03458C5.7627 7.22959 6.02724 7.33914 6.30307 7.33914ZM7.34311 16.6974C7.34311 16.4216 7.23354 16.1572 7.03849 15.9622C6.84345 15.7672 6.57891 15.6576 6.30307 15.6576C6.02724 15.6576 5.7627 15.7672 5.56766 15.9622C5.37261 16.1572 5.26304 16.4216 5.26304 16.6974C5.26304 16.9732 5.37261 17.2377 5.56766 17.4327C5.7627 17.6277 6.02724 17.7372 6.30307 17.7372C6.57891 17.7372 6.84345 17.6277 7.03849 17.4327C7.23354 17.2377 7.34311 16.9732 7.34311 16.6974ZM16.7034 7.33914C16.9793 7.33914 17.2438 7.22959 17.4388 7.03458C17.6339 6.83958 17.7435 6.5751 17.7435 6.29933C17.7435 6.02355 17.6339 5.75907 17.4388 5.56407C17.2438 5.36907 16.9793 5.25952 16.7034 5.25952C16.4276 5.25952 16.1631 5.36907 15.968 5.56407C15.773 5.75907 15.6634 6.02355 15.6634 6.29933C15.6634 6.5751 15.773 6.83958 15.968 7.03458C16.1631 7.22959 16.4276 7.33914 16.7034 7.33914ZM17.7435 16.6974C17.7435 16.4216 17.6339 16.1572 17.4388 15.9622C17.2438 15.7672 16.9793 15.6576 16.7034 15.6576C16.4276 15.6576 16.1631 15.7672 15.968 15.9622C15.773 16.1572 15.6634 16.4216 15.6634 16.6974C15.6634 16.9732 15.773 17.2377 15.968 17.4327C16.1631 17.6277 16.4276 17.7372 16.7034 17.7372C16.9793 17.7372 17.2438 17.6277 17.4388 17.4327C17.6339 17.2377 17.7435 16.9732 17.7435 16.6974ZM7.88913 8.66489C7.88913 8.37895 8.12314 8.14499 8.40915 8.14499H9.8912C10.3657 8.14499 10.7492 8.52842 10.7492 9.00283V10.4846C10.7492 10.7705 10.5152 11.0045 10.2292 11.0045C9.9432 11.0045 9.70919 10.7705 9.70919 10.4846V10.0524C9.38418 10.4553 9.18917 10.9655 9.18917 11.5244C9.18917 12.4342 9.70594 13.2206 10.4665 13.6105C10.7232 13.7405 10.824 14.0557 10.694 14.3091C10.564 14.5626 10.2487 14.6665 9.9952 14.5366C8.90316 13.9777 8.15239 12.8404 8.15239 11.5276C8.15239 10.6308 8.5034 9.81193 9.07542 9.20754C9.08192 9.20105 9.08842 9.19455 9.09492 9.18805H8.4124C8.12639 9.18805 7.89238 8.95409 7.89238 8.66814L7.88913 8.66489ZM14.6494 14.9038H13.1673C12.6928 14.9038 12.3093 14.5203 12.3093 14.0459V12.5642C12.3093 12.2782 12.5433 12.0443 12.8293 12.0443C13.1153 12.0443 13.3493 12.2782 13.3493 12.5642V12.9444C13.6743 12.5414 13.8693 12.0313 13.8693 11.4724C13.8693 10.5625 13.3526 9.77619 12.592 9.38626C12.3353 9.25629 12.2345 8.94109 12.3645 8.68764C12.4945 8.43419 12.8098 8.3302 13.0633 8.46018C14.1553 9.01908 14.9061 10.1564 14.9061 11.4724C14.9061 12.3692 14.5551 13.1881 13.9831 13.7925C13.9571 13.8184 13.9311 13.8444 13.9018 13.8639H14.6461C14.9321 13.8639 15.1661 14.0979 15.1661 14.3838C15.1661 14.6698 14.9321 14.9038 14.6461 14.9038H14.6494Z" fill="black"/>
</svg>
