<svg width="22" height="22" viewBox="0 0 22 22" fill="none" xmlns="http://www.w3.org/2000/svg">
<path d="M7.215 4.125C7.215 4.58652 7.51306 4.98164 7.92833 5.12773C8.14267 5.2041 8.28667 5.40332 8.28667 5.6291V6.78125H14.7167V5.6291C14.7167 5.40332 14.8607 5.2041 15.075 5.12773C15.4903 4.98164 15.7883 4.58652 15.7883 4.125C15.7883 3.5373 15.3094 3.0625 14.7167 3.0625C14.1239 3.0625 13.645 3.5373 13.645 4.125C13.645 4.41719 13.4039 4.65625 13.1092 4.65625C12.8145 4.65625 12.5733 4.41719 12.5733 4.125C12.5733 3.5373 12.0944 3.0625 11.5017 3.0625C10.9089 3.0625 10.43 3.5373 10.43 4.125C10.43 4.41719 10.1889 4.65625 9.89417 4.65625C9.59946 4.65625 9.35834 4.41719 9.35834 4.125C9.35834 3.5373 8.87944 3.0625 8.28667 3.0625C7.6939 3.0625 7.215 3.5373 7.215 4.125ZM8.28667 2C8.92632 2 9.50234 2.27891 9.89417 2.72051C10.286 2.27891 10.862 2 11.5017 2C12.1413 2 12.7173 2.27891 13.1092 2.72051C13.501 2.27891 14.077 2 14.7167 2C15.8989 2 16.86 2.95293 16.86 4.125C16.86 4.91191 16.428 5.59922 15.7883 5.96445V7.3125V7.84375C15.7883 10.1912 13.8694 12.0938 11.5017 12.0938C9.13396 12.0938 7.215 10.1912 7.215 7.84375V7.3125V5.96445C6.57535 5.59922 6.14334 4.91191 6.14334 4.125C6.14334 2.95293 7.10449 2 8.28667 2ZM11.5017 11.0312C13.2766 11.0312 14.7167 9.60352 14.7167 7.84375H8.28667C8.28667 9.60352 9.72672 11.0312 11.5017 11.0312ZM7.75084 14.3715C7.75084 14.6072 7.59344 14.8131 7.36906 14.8795C6.03952 15.2746 5.07167 16.4932 5.07167 17.9375H8.28667V16.4932C8.28667 15.8723 8.65171 15.3078 9.22103 15.0455L10.3396 14.5342L7.75084 13.3355V14.3715ZM9.35834 17.9375H17.9317C17.9317 16.4932 16.9638 15.2746 15.6343 14.8828C15.4066 14.8164 15.2525 14.6072 15.2525 14.3748V13.4584L9.66979 16.0084C9.4789 16.0947 9.35834 16.284 9.35834 16.4898V17.9342V17.9375ZM15.2492 12.1635C15.3496 12.117 15.4568 12.0938 15.5673 12.0938C15.9859 12.0938 16.3208 12.4291 16.3208 12.8408V13.9963C17.8915 14.6271 19 16.1545 19 17.9375C19 18.5252 18.5211 19 17.9283 19H5.07167C4.4789 19 4 18.5252 4 17.9375C4 16.1545 5.10851 14.6271 6.67917 13.9963V12.8408C6.67917 12.4258 7.01741 12.0938 7.43269 12.0938C7.5432 12.0938 7.65037 12.117 7.75084 12.1635L11.5017 13.8967L15.2492 12.1635ZM12.0375 15.8125C12.1796 15.8125 12.3159 15.8685 12.4164 15.9681C12.5169 16.0677 12.5733 16.2029 12.5733 16.3438C12.5733 16.4846 12.5169 16.6198 12.4164 16.7194C12.3159 16.819 12.1796 16.875 12.0375 16.875C11.8954 16.875 11.7591 16.819 11.6586 16.7194C11.5581 16.6198 11.5017 16.4846 11.5017 16.3438C11.5017 16.2029 11.5581 16.0677 11.6586 15.9681C11.7591 15.8685 11.8954 15.8125 12.0375 15.8125ZM13.645 16.3438C13.645 16.2029 13.7015 16.0677 13.802 15.9681C13.9024 15.8685 14.0387 15.8125 14.1808 15.8125C14.323 15.8125 14.4592 15.8685 14.5597 15.9681C14.6602 16.0677 14.7167 16.2029 14.7167 16.3438C14.7167 16.4846 14.6602 16.6198 14.5597 16.7194C14.4592 16.819 14.323 16.875 14.1808 16.875C14.0387 16.875 13.9024 16.819 13.802 16.7194C13.7015 16.6198 13.645 16.4846 13.645 16.3438Z" fill="black"/>
</svg>
