<svg width="22" height="22" viewBox="0 0 22 22" fill="none" xmlns="http://www.w3.org/2000/svg">
<path d="M11 2.61765L9.28437 8.30541C9.21055 8.55028 8.99609 8.71724 8.75 8.71724H3.52227L7.95195 12.0935C8.14531 12.2419 8.22969 12.5054 8.15937 12.7465L6.62305 18.0892L10.6555 14.7797C10.8594 14.6128 11.1441 14.6128 11.3445 14.7797L15.377 18.0892L13.8371 12.7502C13.7668 12.5091 13.8512 12.2457 14.0445 12.0972L18.4742 8.72095L13.25 8.71724C13.0039 8.71724 12.7895 8.55028 12.7156 8.30541L11 2.61765ZM10.0965 1.69752C10.223 1.28198 10.5887 1 11 1C11.4113 1 11.777 1.28198 11.9035 1.69752L13.6613 7.52997H19.0648C19.5816 7.52997 20 7.97149 20 8.51689C20 8.83226 19.8559 9.13279 19.6133 9.3183L15.0289 12.8096L16.8148 19.0057C16.959 19.4991 16.6074 20 16.1188 20C15.957 20 15.7988 19.9443 15.6723 19.8368L11 16.0004L6.32773 19.833C6.20117 19.9369 6.04297 19.9963 5.88125 19.9963C5.39258 19.9963 5.04102 19.4991 5.18516 19.002L6.97109 12.8059L2.38672 9.31459C2.14414 9.12908 2 8.83226 2 8.51318C2 7.97149 2.41836 7.52997 2.93516 7.52997H8.33867L10.0965 1.69752Z" fill="black"/>
</svg>
