<svg width="337" height="24" viewBox="0 0 337 24" fill="none" xmlns="http://www.w3.org/2000/svg">
<circle cx="12" cy="12" r="9" stroke="black" stroke-width="1.5" stroke-linecap="round" stroke-linejoin="round"/>
<path d="M8 12L12 16" stroke="black" stroke-width="1.5" stroke-linecap="round" stroke-linejoin="round"/>
<path d="M12 8V16" stroke="black" stroke-width="1.5" stroke-linecap="round" stroke-linejoin="round"/>
<path d="M16 12L12 16" stroke="black" stroke-width="1.5" stroke-linecap="round" stroke-linejoin="round"/>
<path d="M37.1709 12.8179H34.3218V11.668H37.1709C37.7227 11.668 38.1694 11.5801 38.5112 11.4043C38.853 11.2285 39.1021 10.9844 39.2583 10.6719C39.4194 10.3594 39.5 10.0029 39.5 9.60254C39.5 9.23633 39.4194 8.89209 39.2583 8.56982C39.1021 8.24756 38.853 7.98877 38.5112 7.79346C38.1694 7.59326 37.7227 7.49316 37.1709 7.49316H34.6514V17H33.2378V6.33594H37.1709C37.9766 6.33594 38.6577 6.4751 39.2144 6.75342C39.771 7.03174 40.1934 7.41748 40.4814 7.91064C40.7695 8.39893 40.9136 8.95801 40.9136 9.58789C40.9136 10.2715 40.7695 10.855 40.4814 11.3384C40.1934 11.8218 39.771 12.1904 39.2144 12.4443C38.6577 12.6934 37.9766 12.8179 37.1709 12.8179ZM43.8506 10.3203V17H42.4956V9.0752H43.814L43.8506 10.3203ZM46.3262 9.03125L46.3188 10.291C46.2065 10.2666 46.0991 10.252 45.9966 10.2471C45.8989 10.2373 45.7866 10.2324 45.6597 10.2324C45.3472 10.2324 45.0713 10.2812 44.832 10.3789C44.5928 10.4766 44.3901 10.6133 44.2241 10.7891C44.0581 10.9648 43.9263 11.1748 43.8286 11.4189C43.7358 11.6582 43.6748 11.9219 43.6455 12.21L43.2646 12.4297C43.2646 11.9512 43.311 11.502 43.4038 11.082C43.5015 10.6621 43.6504 10.291 43.8506 9.96875C44.0508 9.6416 44.3047 9.3877 44.6123 9.20703C44.9248 9.02148 45.2959 8.92871 45.7256 8.92871C45.8232 8.92871 45.9355 8.94092 46.0625 8.96533C46.1895 8.98486 46.2773 9.00684 46.3262 9.03125ZM50.7207 17.1465C50.1689 17.1465 49.6685 17.0537 49.2192 16.8682C48.7749 16.6777 48.3916 16.4116 48.0693 16.0698C47.752 15.728 47.5078 15.3228 47.3369 14.854C47.166 14.3853 47.0806 13.8726 47.0806 13.3159V13.0083C47.0806 12.3638 47.1758 11.79 47.3662 11.2871C47.5566 10.7793 47.8154 10.3496 48.1426 9.99805C48.4697 9.64648 48.8408 9.38037 49.2559 9.19971C49.6709 9.01904 50.1006 8.92871 50.5449 8.92871C51.1113 8.92871 51.5996 9.02637 52.0098 9.22168C52.4248 9.41699 52.7642 9.69043 53.0278 10.042C53.2915 10.3887 53.4868 10.7988 53.6138 11.2725C53.7407 11.7412 53.8042 12.2539 53.8042 12.8105V13.4185H47.8862V12.3125H52.4492V12.21C52.4297 11.8584 52.3564 11.5166 52.2295 11.1846C52.1074 10.8525 51.9121 10.5791 51.6436 10.3643C51.375 10.1494 51.0088 10.042 50.5449 10.042C50.2373 10.042 49.9541 10.1079 49.6953 10.2397C49.4365 10.3667 49.2144 10.5571 49.0288 10.811C48.8433 11.0649 48.6992 11.375 48.5967 11.7412C48.4941 12.1074 48.4429 12.5298 48.4429 13.0083V13.3159C48.4429 13.6919 48.4941 14.0459 48.5967 14.3779C48.7041 14.7051 48.8579 14.9932 49.0581 15.2422C49.2632 15.4912 49.5098 15.6865 49.7979 15.8281C50.0908 15.9697 50.4229 16.0405 50.7939 16.0405C51.2725 16.0405 51.6777 15.9429 52.0098 15.7476C52.3418 15.5522 52.6323 15.291 52.8813 14.9639L53.7017 15.6157C53.5308 15.8745 53.3135 16.1211 53.0498 16.3555C52.7861 16.5898 52.4614 16.7803 52.0757 16.9268C51.6948 17.0732 51.2432 17.1465 50.7207 17.1465ZM56.7412 10.5986V20.0469H55.3789V9.0752H56.624L56.7412 10.5986ZM62.0806 12.9717V13.1255C62.0806 13.7017 62.0122 14.2363 61.8755 14.7295C61.7388 15.2178 61.5386 15.6426 61.2749 16.0039C61.0161 16.3652 60.6963 16.646 60.3154 16.8462C59.9346 17.0464 59.4976 17.1465 59.0044 17.1465C58.5015 17.1465 58.0571 17.0635 57.6714 16.8975C57.2856 16.7314 56.9585 16.4897 56.6899 16.1724C56.4214 15.855 56.2065 15.4741 56.0454 15.0298C55.8892 14.5854 55.7817 14.085 55.7231 13.5283V12.708C55.7817 12.1221 55.8916 11.5972 56.0527 11.1333C56.2139 10.6694 56.4263 10.2739 56.6899 9.94678C56.9585 9.61475 57.2832 9.36328 57.6641 9.19238C58.0449 9.0166 58.4844 8.92871 58.9824 8.92871C59.4805 8.92871 59.9224 9.02637 60.3081 9.22168C60.6938 9.41211 61.0186 9.68555 61.2822 10.042C61.5459 10.3984 61.7437 10.8257 61.8755 11.3237C62.0122 11.8169 62.0806 12.3662 62.0806 12.9717ZM60.7183 13.1255V12.9717C60.7183 12.5762 60.6768 12.2051 60.5938 11.8584C60.5107 11.5068 60.3813 11.1992 60.2056 10.9355C60.0347 10.667 59.8149 10.457 59.5464 10.3057C59.2778 10.1494 58.958 10.0713 58.5869 10.0713C58.2451 10.0713 57.9473 10.1299 57.6934 10.2471C57.4443 10.3643 57.2319 10.5229 57.0562 10.7231C56.8804 10.9185 56.7363 11.1431 56.624 11.397C56.5166 11.646 56.436 11.9048 56.3823 12.1733V14.0703C56.48 14.4121 56.6167 14.7344 56.7925 15.0371C56.9683 15.335 57.2026 15.5767 57.4956 15.7622C57.7886 15.9429 58.1572 16.0332 58.6016 16.0332C58.9678 16.0332 59.2827 15.9575 59.5464 15.8062C59.8149 15.6499 60.0347 15.4375 60.2056 15.1689C60.3813 14.9004 60.5107 14.5928 60.5938 14.2461C60.6768 13.8945 60.7183 13.521 60.7183 13.1255ZM68.4819 15.645V11.5654C68.4819 11.2529 68.4185 10.9819 68.2915 10.7524C68.1694 10.5181 67.9839 10.3374 67.7349 10.2104C67.4858 10.0835 67.1782 10.02 66.812 10.02C66.4702 10.02 66.1699 10.0786 65.9111 10.1958C65.6572 10.313 65.457 10.4668 65.3105 10.6572C65.1689 10.8477 65.0981 11.0527 65.0981 11.2725H63.7432C63.7432 10.9893 63.8164 10.7085 63.9629 10.4302C64.1094 10.1519 64.3193 9.90039 64.5928 9.67578C64.8711 9.44629 65.2031 9.26562 65.5889 9.13379C65.9795 8.99707 66.4141 8.92871 66.8926 8.92871C67.4688 8.92871 67.9766 9.02637 68.416 9.22168C68.8604 9.41699 69.207 9.7124 69.4561 10.1079C69.71 10.4985 69.8369 10.9893 69.8369 11.5801V15.2715C69.8369 15.5352 69.8589 15.8159 69.9028 16.1138C69.9517 16.4116 70.0225 16.668 70.1152 16.8828V17H68.7017C68.6333 16.8438 68.5796 16.6362 68.5405 16.3774C68.5015 16.1138 68.4819 15.8696 68.4819 15.645ZM68.7163 12.1953L68.731 13.1475H67.3613C66.9756 13.1475 66.6313 13.1792 66.3286 13.2427C66.0259 13.3013 65.772 13.3916 65.5669 13.5137C65.3618 13.6357 65.2056 13.7896 65.0981 13.9751C64.9907 14.1558 64.937 14.3682 64.937 14.6123C64.937 14.8613 64.9932 15.0884 65.1055 15.2935C65.2178 15.4985 65.3862 15.6621 65.6108 15.7842C65.8403 15.9014 66.1211 15.96 66.4531 15.96C66.8682 15.96 67.2344 15.8721 67.5518 15.6963C67.8691 15.5205 68.1206 15.3057 68.3062 15.0518C68.4966 14.7979 68.5991 14.5513 68.6138 14.312L69.1924 14.9639C69.1582 15.1689 69.0654 15.396 68.9141 15.645C68.7627 15.894 68.5601 16.1333 68.3062 16.3628C68.0571 16.5874 67.7593 16.7754 67.4126 16.9268C67.0708 17.0732 66.6851 17.1465 66.2554 17.1465C65.7183 17.1465 65.2471 17.0415 64.8418 16.8315C64.4414 16.6216 64.1289 16.3408 63.9043 15.9893C63.6846 15.6328 63.5747 15.2349 63.5747 14.7954C63.5747 14.3706 63.6577 13.9971 63.8237 13.6748C63.9897 13.3477 64.229 13.0767 64.5415 12.8618C64.854 12.6421 65.23 12.4761 65.6694 12.3638C66.1089 12.2515 66.5996 12.1953 67.1416 12.1953H68.7163ZM73.3232 10.3203V17H71.9683V9.0752H73.2866L73.3232 10.3203ZM75.7988 9.03125L75.7915 10.291C75.6792 10.2666 75.5718 10.252 75.4692 10.2471C75.3716 10.2373 75.2593 10.2324 75.1323 10.2324C74.8198 10.2324 74.5439 10.2812 74.3047 10.3789C74.0654 10.4766 73.8628 10.6133 73.6968 10.7891C73.5308 10.9648 73.3989 11.1748 73.3013 11.4189C73.2085 11.6582 73.1475 11.9219 73.1182 12.21L72.7373 12.4297C72.7373 11.9512 72.7837 11.502 72.8765 11.082C72.9741 10.6621 73.123 10.291 73.3232 9.96875C73.5234 9.6416 73.7773 9.3877 74.085 9.20703C74.3975 9.02148 74.7686 8.92871 75.1982 8.92871C75.2959 8.92871 75.4082 8.94092 75.5352 8.96533C75.6621 8.98486 75.75 9.00684 75.7988 9.03125ZM81.4312 15.645V11.5654C81.4312 11.2529 81.3677 10.9819 81.2407 10.7524C81.1187 10.5181 80.9331 10.3374 80.6841 10.2104C80.4351 10.0835 80.1274 10.02 79.7612 10.02C79.4194 10.02 79.1191 10.0786 78.8604 10.1958C78.6064 10.313 78.4062 10.4668 78.2598 10.6572C78.1182 10.8477 78.0474 11.0527 78.0474 11.2725H76.6924C76.6924 10.9893 76.7656 10.7085 76.9121 10.4302C77.0586 10.1519 77.2686 9.90039 77.542 9.67578C77.8203 9.44629 78.1523 9.26562 78.5381 9.13379C78.9287 8.99707 79.3633 8.92871 79.8418 8.92871C80.418 8.92871 80.9258 9.02637 81.3652 9.22168C81.8096 9.41699 82.1562 9.7124 82.4053 10.1079C82.6592 10.4985 82.7861 10.9893 82.7861 11.5801V15.2715C82.7861 15.5352 82.8081 15.8159 82.8521 16.1138C82.9009 16.4116 82.9717 16.668 83.0645 16.8828V17H81.6509C81.5825 16.8438 81.5288 16.6362 81.4897 16.3774C81.4507 16.1138 81.4312 15.8696 81.4312 15.645ZM81.6655 12.1953L81.6802 13.1475H80.3105C79.9248 13.1475 79.5806 13.1792 79.2778 13.2427C78.9751 13.3013 78.7212 13.3916 78.5161 13.5137C78.311 13.6357 78.1548 13.7896 78.0474 13.9751C77.9399 14.1558 77.8862 14.3682 77.8862 14.6123C77.8862 14.8613 77.9424 15.0884 78.0547 15.2935C78.167 15.4985 78.3354 15.6621 78.5601 15.7842C78.7896 15.9014 79.0703 15.96 79.4023 15.96C79.8174 15.96 80.1836 15.8721 80.501 15.6963C80.8184 15.5205 81.0698 15.3057 81.2554 15.0518C81.4458 14.7979 81.5483 14.5513 81.563 14.312L82.1416 14.9639C82.1074 15.1689 82.0146 15.396 81.8633 15.645C81.7119 15.894 81.5093 16.1333 81.2554 16.3628C81.0063 16.5874 80.7085 16.7754 80.3618 16.9268C80.02 17.0732 79.6343 17.1465 79.2046 17.1465C78.6675 17.1465 78.1963 17.0415 77.791 16.8315C77.3906 16.6216 77.0781 16.3408 76.8535 15.9893C76.6338 15.6328 76.5239 15.2349 76.5239 14.7954C76.5239 14.3706 76.6069 13.9971 76.7729 13.6748C76.939 13.3477 77.1782 13.0767 77.4907 12.8618C77.8032 12.6421 78.1792 12.4761 78.6187 12.3638C79.0581 12.2515 79.5488 12.1953 80.0908 12.1953H81.6655ZM88.2354 9.0752V10.1152H83.9507V9.0752H88.2354ZM85.4009 7.14893H86.7559V15.0371C86.7559 15.3057 86.7974 15.5083 86.8804 15.645C86.9634 15.7817 87.0708 15.8721 87.2026 15.916C87.3345 15.96 87.4761 15.9819 87.6274 15.9819C87.7397 15.9819 87.8569 15.9722 87.979 15.9526C88.106 15.9282 88.2012 15.9087 88.2646 15.894L88.272 17C88.1646 17.0342 88.0229 17.0659 87.8472 17.0952C87.6763 17.1294 87.4688 17.1465 87.2246 17.1465C86.8926 17.1465 86.5874 17.0806 86.3091 16.9487C86.0308 16.8169 85.8086 16.5972 85.6426 16.2896C85.4814 15.9771 85.4009 15.5571 85.4009 15.0298V7.14893ZM91.2969 9.0752V17H89.9346V9.0752H91.2969ZM89.832 6.97314C89.832 6.75342 89.8979 6.56787 90.0298 6.4165C90.1665 6.26514 90.3667 6.18945 90.6304 6.18945C90.8892 6.18945 91.0869 6.26514 91.2236 6.4165C91.3652 6.56787 91.436 6.75342 91.436 6.97314C91.436 7.18311 91.3652 7.36377 91.2236 7.51514C91.0869 7.66162 90.8892 7.73486 90.6304 7.73486C90.3667 7.73486 90.1665 7.66162 90.0298 7.51514C89.8979 7.36377 89.832 7.18311 89.832 6.97314ZM93.1133 13.1255V12.957C93.1133 12.3857 93.1963 11.856 93.3623 11.3677C93.5283 10.8745 93.7676 10.4473 94.0801 10.0859C94.3926 9.71973 94.771 9.43652 95.2153 9.23633C95.6597 9.03125 96.1577 8.92871 96.7095 8.92871C97.2661 8.92871 97.7666 9.03125 98.2109 9.23633C98.6602 9.43652 99.041 9.71973 99.3535 10.0859C99.6709 10.4473 99.9126 10.8745 100.079 11.3677C100.245 11.856 100.328 12.3857 100.328 12.957V13.1255C100.328 13.6968 100.245 14.2266 100.079 14.7148C99.9126 15.2031 99.6709 15.6304 99.3535 15.9966C99.041 16.3579 98.6626 16.6411 98.2183 16.8462C97.7788 17.0464 97.2808 17.1465 96.7241 17.1465C96.1675 17.1465 95.667 17.0464 95.2227 16.8462C94.7783 16.6411 94.3975 16.3579 94.0801 15.9966C93.7676 15.6304 93.5283 15.2031 93.3623 14.7148C93.1963 14.2266 93.1133 13.6968 93.1133 13.1255ZM94.4683 12.957V13.1255C94.4683 13.521 94.5146 13.8945 94.6074 14.2461C94.7002 14.5928 94.8394 14.9004 95.0249 15.1689C95.2153 15.4375 95.4521 15.6499 95.7354 15.8062C96.0186 15.9575 96.3481 16.0332 96.7241 16.0332C97.0952 16.0332 97.4199 15.9575 97.6982 15.8062C97.9814 15.6499 98.2158 15.4375 98.4014 15.1689C98.5869 14.9004 98.7261 14.5928 98.8188 14.2461C98.9165 13.8945 98.9653 13.521 98.9653 13.1255V12.957C98.9653 12.5664 98.9165 12.1978 98.8188 11.8511C98.7261 11.4995 98.5845 11.1895 98.394 10.9209C98.2085 10.6475 97.9741 10.4326 97.6909 10.2764C97.4126 10.1201 97.0854 10.042 96.7095 10.042C96.3384 10.042 96.0112 10.1201 95.728 10.2764C95.4497 10.4326 95.2153 10.6475 95.0249 10.9209C94.8394 11.1895 94.7002 11.4995 94.6074 11.8511C94.5146 12.1978 94.4683 12.5664 94.4683 12.957ZM103.382 10.7671V17H102.027V9.0752H103.309L103.382 10.7671ZM103.06 12.7373L102.496 12.7153C102.5 12.1733 102.581 11.6729 102.737 11.2139C102.894 10.75 103.113 10.3472 103.396 10.0054C103.68 9.66357 104.017 9.3999 104.407 9.21436C104.803 9.02393 105.24 8.92871 105.718 8.92871C106.109 8.92871 106.46 8.98242 106.773 9.08984C107.085 9.19238 107.352 9.3584 107.571 9.58789C107.796 9.81738 107.967 10.1152 108.084 10.4814C108.201 10.8428 108.26 11.2847 108.26 11.8071V17H106.897V11.7925C106.897 11.3774 106.836 11.0454 106.714 10.7964C106.592 10.5425 106.414 10.3594 106.18 10.2471C105.945 10.1299 105.657 10.0713 105.315 10.0713C104.979 10.0713 104.671 10.1421 104.393 10.2837C104.119 10.4253 103.882 10.6206 103.682 10.8696C103.487 11.1187 103.333 11.4043 103.221 11.7266C103.113 12.0439 103.06 12.3809 103.06 12.7373ZM114.932 14.8979C114.932 14.7026 114.888 14.522 114.8 14.356C114.717 14.1851 114.544 14.0312 114.28 13.8945C114.021 13.7529 113.631 13.6309 113.108 13.5283C112.669 13.4355 112.271 13.3257 111.915 13.1987C111.563 13.0718 111.263 12.918 111.014 12.7373C110.77 12.5566 110.582 12.3442 110.45 12.1001C110.318 11.856 110.252 11.5703 110.252 11.2432C110.252 10.9307 110.32 10.6353 110.457 10.3569C110.599 10.0786 110.796 9.83203 111.05 9.61719C111.309 9.40234 111.619 9.23389 111.98 9.11182C112.342 8.98975 112.745 8.92871 113.189 8.92871C113.824 8.92871 114.366 9.04102 114.815 9.26562C115.264 9.49023 115.608 9.79053 115.848 10.1665C116.087 10.5376 116.207 10.9502 116.207 11.4043H114.852C114.852 11.1846 114.786 10.9722 114.654 10.7671C114.527 10.5571 114.339 10.3838 114.09 10.2471C113.846 10.1104 113.545 10.042 113.189 10.042C112.813 10.042 112.508 10.1006 112.273 10.2178C112.044 10.3301 111.875 10.4741 111.768 10.6499C111.666 10.8257 111.614 11.0112 111.614 11.2065C111.614 11.353 111.639 11.4849 111.688 11.6021C111.741 11.7144 111.834 11.8193 111.966 11.917C112.098 12.0098 112.283 12.0977 112.522 12.1807C112.762 12.2637 113.067 12.3467 113.438 12.4297C114.087 12.5762 114.622 12.752 115.042 12.957C115.462 13.1621 115.774 13.4136 115.979 13.7114C116.185 14.0093 116.287 14.3706 116.287 14.7954C116.287 15.1421 116.214 15.4595 116.067 15.7476C115.926 16.0356 115.718 16.2847 115.445 16.4946C115.176 16.6997 114.854 16.8608 114.478 16.978C114.107 17.0903 113.689 17.1465 113.226 17.1465C112.527 17.1465 111.937 17.022 111.453 16.7729C110.97 16.5239 110.604 16.2017 110.354 15.8062C110.105 15.4106 109.981 14.9932 109.981 14.5537H111.343C111.363 14.9248 111.47 15.2202 111.666 15.4399C111.861 15.6548 112.1 15.8086 112.383 15.9014C112.667 15.9893 112.947 16.0332 113.226 16.0332C113.597 16.0332 113.907 15.9844 114.156 15.8867C114.41 15.7891 114.603 15.6548 114.734 15.4839C114.866 15.313 114.932 15.1177 114.932 14.8979Z" fill="#2F2B3D" fill-opacity="0.9"/>
</svg>
