<svg width="22" height="22" viewBox="0 0 22 22" fill="none" xmlns="http://www.w3.org/2000/svg">
<path d="M11.368 2.13975C11.1597 1.95342 10.8438 1.95342 10.632 2.13975L1.1882 10.5777C0.959049 10.7816 0.934745 11.1402 1.13959 11.3722C1.34444 11.6043 1.69511 11.6289 1.92426 11.4215L3.22278 10.2612V17.1874C3.22278 18.7413 4.46574 20 6.00036 20H15.9996C17.5343 20 18.7772 18.7413 18.7772 17.1874V10.2612L20.0757 11.4215C20.3049 11.6254 20.6556 11.6043 20.8604 11.3722C21.0653 11.1402 21.041 10.7851 20.8118 10.5777L11.368 2.13975ZM4.33381 17.1874V9.26627L11 3.31051L17.6662 9.26627V17.1874C17.6662 18.119 16.9197 18.8749 15.9996 18.8749H13.7776V13.2497C13.7776 12.6274 13.2811 12.1246 12.6665 12.1246H9.33345C8.71891 12.1246 8.22242 12.6274 8.22242 13.2497V18.8749H6.00036C5.08028 18.8749 4.33381 18.119 4.33381 17.1874ZM9.33345 18.8749V13.2497H12.6665V18.8749H9.33345Z" fill="black"/>
</svg>
