<svg width="22" height="22" viewBox="0 0 22 22" fill="none" xmlns="http://www.w3.org/2000/svg">
<path d="M4.125 5.08333C3.5373 5.08333 3.0625 5.56745 3.0625 6.16667V7.51745L9.55703 12.3721C10.1182 12.7919 10.8818 12.7919 11.443 12.3721L17.9375 7.51745V6.16667C17.9375 5.56745 17.4627 5.08333 16.875 5.08333H4.125ZM3.0625 8.86146V14.8333C3.0625 15.4326 3.5373 15.9167 4.125 15.9167H16.875C17.4627 15.9167 17.9375 15.4326 17.9375 14.8333V8.86146L12.0705 13.2456C11.1342 13.943 9.8625 13.943 8.92949 13.2456L3.0625 8.86146ZM2 6.16667C2 4.97161 2.95293 4 4.125 4H16.875C18.0471 4 19 4.97161 19 6.16667V14.8333C19 16.0284 18.0471 17 16.875 17H4.125C2.95293 17 2 16.0284 2 14.8333V6.16667Z" fill="black"/>
</svg>
